{
  "accessors": [
    {
      "bufferView": 2,
      "componentType": 5126,
      "count": 472,
      "max": [
        0.6083695292472839,
        0.8131115436553955,
        0.21612566709518433
      ],
      "min": [
        -0.6083695292472839,
        -0.4249489903450012,
        0.05996575206518173
      ],
      "type": "VEC3"
    },
    {
      "bufferView": 2,
      "byteOffset": 5664,
      "componentType": 5126,
      "count": 472,
      "max": [
        0.9999668002128601,
        0.48469939827919006,
        0.9998484253883362
      ],
      "min": [
        -0.9999668002128601,
        -0.9999954104423523,
        -0.9994840621948242
      ],
      "type": "VEC3"
    },
    {
      "bufferView": 1,
      "componentType": 5126,
      "count": 472,
      "max": [
        0.2556345462799072,
        0.5515717267990112
      ],
      "min": [
        0.03587847203016281,
        0.026234835386276245
      ],
      "type": "VEC2"
    },
    {
      "bufferView": 0,
      "componentType": 5125,
      "count": 1632,
      "type": "SCALAR"
    },
    {
      "bufferView": 2,
      "byteOffset": 11328,
      "componentType": 5126,
      "count": 1652,
      "max": [
        0.6090832948684692,
        -0.4287557899951935,
        0.22620849311351776
      ],
      "min": [
        -0.6090832948684692,
        -0.5458364486694336,
        -0.21578076481819153
      ],
      "type": "VEC3"
    },
    {
      "bufferView": 2,
      "byteOffset": 31152,
      "componentType": 5126,
      "count": 1652,
      "max": [
        0.9990491271018982,
        0.9999979734420776,
        0.9997979998588562
      ],
      "min": [
        -0.9990491271018982,
        -0.9999862909317017,
        -0.9999989867210388
      ],
      "type": "VEC3"
    },
    {
      "bufferView": 1,
      "byteOffset": 3776,
      "componentType": 5126,
      "count": 1652,
      "max": [
        0.7294142842292786,
        0.5790625214576721
      ],
      "min": [
        0.2922385334968567,
        0.011685729026794434
      ],
      "type": "VEC2"
    },
    {
      "bufferView": 0,
      "byteOffset": 6528,
      "componentType": 5125,
      "count": 6708,
      "type": "SCALAR"
    },
    {
      "bufferView": 2,
      "byteOffset": 50976,
      "componentType": 5126,
      "count": 1453,
      "max": [
        0.007963205687701702,
        -0.0050381566397845745,
        0.0024203239008784294
      ],
      "min": [
        -0.007963205687701702,
        -0.005879290867596865,
        0.0019595357589423656
      ],
      "type": "VEC3"
    },
    {
      "bufferView": 2,
      "byteOffset": 68412,
      "componentType": 5126,
      "count": 1453,
      "max": [
        1.0,
        0.9998759627342224,
        1.0
      ],
      "min": [
        -1.0,
        -1.0,
        -1.0
      ],
      "type": "VEC3"
    },
    {
      "bufferView": 1,
      "byteOffset": 16992,
      "componentType": 5126,
      "count": 1453,
      "max": [
        0.2352539300918579,
        0.7752084732055664
      ],
      "min": [
        0.03427696228027344,
        0.5765477418899536
      ],
      "type": "VEC2"
    },
    {
      "bufferView": 0,
      "byteOffset": 33360,
      "componentType": 5125,
      "count": 5568,
      "type": "SCALAR"
    },
    {
      "bufferView": 2,
      "byteOffset": 85848,
      "componentType": 5126,
      "count": 169,
      "max": [
        0.5913516283035278,
        -0.4648537039756775,
        0.21291686594486237
      ],
      "min": [
        -0.5913516283035278,
        -0.5380581617355347,
        -0.20177562534809113
      ],
      "type": "VEC3"
    },
    {
      "bufferView": 2,
      "byteOffset": 87876,
      "componentType": 5126,
      "count": 169,
      "max": [
        0.17726747691631317,
        -0.9796719551086426,
        0.00199150457046926
      ],
      "min": [
        -0.1772671788930893,
        -1.0,
        -0.11421705782413483
      ],
      "type": "VEC3"
    },
    {
      "bufferView": 1,
      "byteOffset": 28616,
      "componentType": 5126,
      "count": 169,
      "max": [
        0.9302759170532227,
        0.5419819355010986
      ],
      "min": [
        0.7576351165771484,
        0.05080275237560272
      ],
      "type": "VEC2"
    },
    {
      "bufferView": 0,
      "byteOffset": 55632,
      "componentType": 5125,
      "count": 816,
      "type": "SCALAR"
    }
  ],
  "asset": {
    "extras": {
      "author": "NaicheCrowhurst (https://sketchfab.com/NaicheCrowhurst)",
      "license": "CC-BY-4.0 (http://creativecommons.org/licenses/by/4.0/)",
      "source": "https://sketchfab.com/3d-models/game-ready-sun-glasses-high-poly-8d488f34171c4fde8d49400960bb5b69",
      "title": "Game Ready Sun Glasses High Poly"
    },
    "generator": "Sketchfab-16.59.0",
    "version": "2.0"
  },
  "bufferViews": [
    {
      "buffer": 0,
      "byteLength": 58896,
      "name": "floatBufferViews",
      "target": 34963
    },
    {
      "buffer": 0,
      "byteLength": 29968,
      "byteOffset": 58896,
      "byteStride": 8,
      "name": "floatBufferViews",
      "target": 34962
    },
    {
      "buffer": 0,
      "byteLength": 89904,
      "byteOffset": 88864,
      "byteStride": 12,
      "name": "floatBufferViews",
      "target": 34962
    }
  ],
  "buffers": [
    {
      "byteLength": 178768,
      "uri": "scene.bin"
    }
  ],
  "extensionsUsed": [
    "KHR_materials_specular"
  ],
  "images": [
    {
      "uri": "textures/Material.005_baseColor.png"
    }
  ],
  "materials": [
    {
      "doubleSided": true,
      "name": "Material.005",
      "pbrMetallicRoughness": {
        "baseColorTexture": {
          "index": 0
        },
        "metallicFactor": 0.0,
        "roughnessFactor": 0.056759030122758514
      }
    },
    {
      "doubleSided": true,
      "name": "Material.004",
      "pbrMetallicRoughness": {
        "baseColorTexture": {
          "index": 0
        },
        "roughnessFactor": 0.0
      }
    },
    {
      "doubleSided": true,
      "extensions": {
        "KHR_materials_specular": {
          "specularColorFactor": [
            1.0,
            1.0,
            1.0
          ],
          "specularFactor": 0.6384781363143202
        }
      },
      "name": "Material.003",
      "pbrMetallicRoughness": {
        "baseColorFactor": [
          0.020742511621608114,
          0.0,
          0.0,
          1.0
        ],
        "metallicFactor": 0.0,
        "roughnessFactor": 0.0
      }
    }
  ],
  "meshes": [
    {
      "name": "Arms.001_Material.005_0",
      "primitives": [
        {
          "attributes": {
            "NORMAL": 1,
            "POSITION": 0,
            "TEXCOORD_0": 2
          },
          "indices": 3,
          "material": 0,
          "mode": 4
        }
      ]
    },
    {
      "name": "Frame.001_Material.005_0",
      "primitives": [
        {
          "attributes": {
            "NORMAL": 5,
            "POSITION": 4,
            "TEXCOORD_0": 6
          },
          "indices": 7,
          "material": 0,
          "mode": 4
        }
      ]
    },
    {
      "name": "Hinges.001_Material.004_0",
      "primitives": [
        {
          "attributes": {
            "NORMAL": 9,
            "POSITION": 8,
            "TEXCOORD_0": 10
          },
          "indices": 11,
          "material": 1,
          "mode": 4
        }
      ]
    },
    {
      "name": "Lens.001_Material.003_0",
      "primitives": [
        {
          "attributes": {
            "NORMAL": 13,
            "POSITION": 12,
            "TEXCOORD_0": 14
          },
          "indices": 15,
          "material": 2,
          "mode": 4
        }
      ]
    }
  ],
  "nodes": [
    {
      "children": [
        1
      ],
      "matrix": [
        1.0,
        0.0,
        0.0,
        0.0,
        0.0,
        2.220446049250313e-16,
        -1.0,
        0.0,
        0.0,
        1.0,
        2.220446049250313e-16,
        0.0,
        0.0,
        0.0,
        0.0,
        1.0
      ],
      "name": "Sketchfab_model"
    },
    {
      "children": [
        2
      ],
      "matrix": [
        0.009999999776482582,
        0.0,
        0.0,
        0.0,
        0.0,
        0.0,
        0.009999999776482582,
        0.0,
        0.0,
        -0.009999999776482582,
        0.0,
        0.0,
        0.0,
        0.0,
        0.0,
        1.0
      ],
      "name": "af7789d815f747838389fa18684ef737.fbx"
    },
    {
      "children": [
        3,
        5,
        7,
        9
      ],
      "name": "RootNode"
    },
    {
      "children": [
        4
      ],
      "matrix": [
        100.0,
        0.0,
        0.0,
        0.0,
        0.0,
        -1.629206793918314e-05,
        -99.99999999999868,
        0.0,
        0.0,
        99.99999999999868,
        -1.629206793918314e-05,
        0.0,
        0.0,
        0.0,
        0.0,
        1.0
      ],
      "name": "Arms.001"
    },
    {
      "mesh": 0,
      "name": "Arms.001_Material.005_0"
    },
    {
      "children": [
        6
      ],
      "matrix": [
        100.0,
        0.0,
        0.0,
        0.0,
        0.0,
        -1.629206793918314e-05,
        -99.99999999999868,
        0.0,
        0.0,
        99.99999999999868,
        -1.629206793918314e-05,
        0.0,
        0.0,
        0.0,
        0.0,
        1.0
      ],
      "name": "Frame.001"
    },
    {
      "mesh": 1,
      "name": "Frame.001_Material.005_0"
    },
    {
      "children": [
        8
      ],
      "matrix": [
        7431.44140625,
        0.0,
        0.0,
        0.0,
        0.0,
        -0.001210735482766837,
        -7431.441406249902,
        0.0,
        0.0,
        7431.441406249902,
        -0.001210735482766837,
        0.0,
        0.0,
        0.0,
        -0.07349749654531479,
        1.0
      ],
      "name": "Hinges.001"
    },
    {
      "mesh": 2,
      "name": "Hinges.001_Material.004_0"
    },
    {
      "children": [
        10
      ],
      "matrix": [
        100.0,
        0.0,
        0.0,
        0.0,
        0.0,
        -1.629206793918314e-05,
        -99.99999999999868,
        0.0,
        0.0,
        99.99999999999868,
        -1.629206793918314e-05,
        0.0,
        0.05039678141474724,
        1.6494420052026726e-08,
        -0.04474443569779396,
        1.0
      ],
      "name": "Lens.001"
    },
    {
      "mesh": 3,
      "name": "Lens.001_Material.003_0"
    }
  ],
  "samplers": [
    {
      "magFilter": 9729,
      "minFilter": 9987,
      "wrapS": 10497,
      "wrapT": 10497
    }
  ],
  "scene": 0,
  "scenes": [
    {
      "name": "Sketchfab_Scene",
      "nodes": [
        0
      ]
    }
  ],
  "textures": [
    {
      "sampler": 0,
      "source": 0
    }
  ]
}
