{
  "accessors": [
    {
      "bufferView": 2,
      "componentType": 5126,
      "count": 5362,
      "max": [
        7.654282093048096,
        7.92484712600708,
        23.266597747802734
      ],
      "min": [
        -7.654281139373779,
        -3.1873199939727783,
        1.2085750102996826
      ],
      "type": "VEC3"
    },
    {
      "bufferView": 2,
      "byteOffset": 64344,
      "componentType": 5126,
      "count": 5362,
      "max": [
        0.9996880292892456,
        0.9999444484710693,
        0.9999771118164063
      ],
      "min": [
        -0.9996881484985352,
        -0.9999686479568481,
        -0.9997661113739014
      ],
      "type": "VEC3"
    },
    {
      "bufferView": 3,
      "componentType": 5126,
      "count": 5362,
      "max": [
        1.0,
        0.9997579455375671,
        1.0,
        1.0
      ],
      "min": [
        -0.9996649026870728,
        -0.9995771646499634,
        -0.9985664486885071,
        -1.0
      ],
      "type": "VEC4"
    },
    {
      "bufferView": 1,
      "componentType": 5126,
      "count": 5362,
      "max": [
        0.9978100061416626,
        0.9830600023269653
      ],
      "min": [
        0.002440999960526824,
        0.002440999960526824
      ],
      "type": "VEC2"
    },
    {
      "bufferView": 0,
      "componentType": 5125,
      "count": 27453,
      "type": "SCALAR"
    },
    {
      "bufferView": 2,
      "byteOffset": 128688,
      "componentType": 5126,
      "count": 5285,
      "max": [
        5.038290023803711,
        5.038455963134766,
        17.89181137084961
      ],
      "min": [
        -5.038454055786133,
        -5.038293838500977,
        0.6636120080947876
      ],
      "type": "VEC3"
    },
    {
      "bufferView": 2,
      "byteOffset": 192108,
      "componentType": 5126,
      "count": 5285,
      "max": [
        0.9995166659355164,
        0.9999348521232605,
        1.0
      ],
      "min": [
        -0.999629020690918,
        -0.9999348521232605,
        -1.0
      ],
      "type": "VEC3"
    },
    {
      "bufferView": 1,
      "byteOffset": 42896,
      "componentType": 5126,
      "count": 5285,
      "max": [
        0.9815829992294312,
        0.5774440169334412
      ],
      "min": [
        0.009178999811410904,
        0.0030350000597536564
      ],
      "type": "VEC2"
    },
    {
      "bufferView": 0,
      "byteOffset": 109812,
      "componentType": 5125,
      "count": 27792,
      "type": "SCALAR"
    }
  ],
  "asset": {
    "extras": {
      "author": "kkovach_extra (https://sketchfab.com/kkovach_extra)",
      "license": "CC-BY-4.0 (http://creativecommons.org/licenses/by/4.0/)",
      "source": "https://sketchfab.com/3d-models/fire-chef-10-7355b5b00db943c3abbff2ccfbffd0d4",
      "title": "Fire Chef 1.0"
    },
    "generator": "Sketchfab-16.56.0",
    "version": "2.0"
  },
  "bufferViews": [
    {
      "buffer": 0,
      "byteLength": 220980,
      "name": "floatBufferViews",
      "target": 34963
    },
    {
      "buffer": 0,
      "byteLength": 85176,
      "byteOffset": 220980,
      "byteStride": 8,
      "name": "floatBufferViews",
      "target": 34962
    },
    {
      "buffer": 0,
      "byteLength": 255528,
      "byteOffset": 306156,
      "byteStride": 12,
      "name": "floatBufferViews",
      "target": 34962
    },
    {
      "buffer": 0,
      "byteLength": 85792,
      "byteOffset": 561684,
      "byteStride": 16,
      "name": "floatBufferViews",
      "target": 34962
    }
  ],
  "buffers": [
    {
      "byteLength": 647476,
      "uri": "scene.bin"
    }
  ],
  "extensionsUsed": [
    "KHR_materials_specular"
  ],
  "images": [
    {
      "uri": "textures/lambert4SG_baseColor.png"
    },
    {
      "uri": "textures/lambert4SG_metallicRoughness.png"
    },
    {
      "uri": "textures/lambert4SG_emissive.png"
    },
    {
      "uri": "textures/lambert4SG_normal.png"
    },
    {
      "uri": "textures/lambert4SG_specularf0.png"
    },
    {
      "uri": "textures/lambert5SG_baseColor.png"
    },
    {
      "uri": "textures/lambert5SG_metallicRoughness.png"
    },
    {
      "uri": "textures/lambert5SG_emissive.png"
    }
  ],
  "materials": [
    {
      "doubleSided": true,
      "emissiveFactor": [
        1.0,
        1.0,
        1.0
      ],
      "emissiveTexture": {
        "index": 2
      },
      "extensions": {
        "KHR_materials_specular": {
          "specularColorFactor": [
            1.0,
            1.0,
            1.0
          ],
          "specularFactor": 1.0,
          "specularTexture": {
            "index": 4
          }
        }
      },
      "name": "lambert4SG",
      "normalTexture": {
        "index": 3
      },
      "pbrMetallicRoughness": {
        "baseColorTexture": {
          "index": 0
        },
        "metallicRoughnessTexture": {
          "index": 1
        }
      }
    },
    {
      "doubleSided": true,
      "emissiveFactor": [
        1.0,
        1.0,
        1.0
      ],
      "emissiveTexture": {
        "index": 7
      },
      "extensions": {
        "KHR_materials_specular": {
          "specularColorFactor": [
            1.0,
            1.0,
            1.0
          ],
          "specularFactor": 1.0
        }
      },
      "name": "lambert5SG",
      "pbrMetallicRoughness": {
        "baseColorTexture": {
          "index": 5
        },
        "metallicRoughnessTexture": {
          "index": 6
        }
      }
    }
  ],
  "meshes": [
    {
      "name": "Object_0",
      "primitives": [
        {
          "attributes": {
            "NORMAL": 1,
            "POSITION": 0,
            "TANGENT": 2,
            "TEXCOORD_0": 3
          },
          "indices": 4,
          "material": 0,
          "mode": 4
        }
      ]
    },
    {
      "name": "Object_1",
      "primitives": [
        {
          "attributes": {
            "NORMAL": 6,
            "POSITION": 5,
            "TEXCOORD_0": 7
          },
          "indices": 8,
          "material": 1,
          "mode": 4
        }
      ]
    }
  ],
  "nodes": [
    {
      "children": [
        1
      ],
      "matrix": [
        1.0,
        0.0,
        0.0,
        0.0,
        0.0,
        2.220446049250313e-16,
        -1.0,
        0.0,
        0.0,
        1.0,
        2.220446049250313e-16,
        0.0,
        0.0,
        0.0,
        0.0,
        1.0
      ],
      "name": "Sketchfab_model"
    },
    {
      "children": [
        2,
        3
      ],
      "name": "MuffinMan_August8th_Low.obj.cleaner.materialmerger.gles"
    },
    {
      "mesh": 0,
      "name": "Object_2"
    },
    {
      "mesh": 1,
      "name": "Object_3"
    }
  ],
  "samplers": [
    {
      "magFilter": 9729,
      "minFilter": 9987,
      "wrapS": 10497,
      "wrapT": 10497
    }
  ],
  "scene": 0,
  "scenes": [
    {
      "name": "Sketchfab_Scene",
      "nodes": [
        0
      ]
    }
  ],
  "textures": [
    {
      "sampler": 0,
      "source": 0
    },
    {
      "sampler": 0,
      "source": 1
    },
    {
      "sampler": 0,
      "source": 2
    },
    {
      "sampler": 0,
      "source": 3
    },
    {
      "sampler": 0,
      "source": 4
    },
    {
      "sampler": 0,
      "source": 5
    },
    {
      "sampler": 0,
      "source": 6
    },
    {
      "sampler": 0,
      "source": 7
    }
  ]
}
